<svg xmlns="http://www.w3.org/2000/svg" version="1.1" xmlns:xlink="http://www.w3.org/1999/xlink" width="300" height="300"><svg id="SvgjsSvg1024" version="1.1" xmlns="http://www.w3.org/2000/svg" style="display: block;" viewBox="0 0 300 300"><path d="M0 0 C23.1 0 46.2 0 70 0 C70 3.3 70 6.6 70 10 C73.3 10 76.6 10 80 10 C80 13.3 80 16.6 80 20 C83.3 20 86.6 20 90 20 C90 23.3 90 26.6 90 30 C93.3 30 96.6 30 100 30 C100 36.6 100 43.2 100 50 C103.3 50 106.6 50 110 50 C110 53.3 110 56.6 110 60 C113.3 60 116.6 60 120 60 C120 63.3 120 66.6 120 70 C123.3 70 126.6 70 130 70 C130 73.3 130 76.6 130 80 C126.7 80 123.4 80 120 80 C120 83.3 120 86.6 120 90 C116.7 90 113.4 90 110 90 C110 96.6 110 103.2 110 110 C106.7 110 103.4 110 100 110 C100 113.3 100 116.6 100 120 C96.7 120 93.4 120 90 120 C90 123.3 90 126.6 90 130 C86.7 130 83.4 130 80 130 C80 133.3 80 136.6 80 140 C76.7 140 73.4 140 70 140 C70 143.3 70 146.6 70 150 C73.3 150 76.6 150 80 150 C80 153.3 80 156.6 80 160 C83.3 160 86.6 160 90 160 C90 166.6 90 173.2 90 180 C93.3 180 96.6 180 100 180 C100 189.9 100 199.8 100 210 C96.7 210 93.4 210 90 210 C90 213.3 90 216.6 90 220 C86.7 220 83.4 220 80 220 C80 226.6 80 233.2 80 240 C83.3 240 86.6 240 90 240 C90 246.6 90 253.2 90 260 C73.5 260 57 260 40 260 C40 253.4 40 246.8 40 240 C36.7 240 33.4 240 30 240 C30 246.6 30 253.2 30 260 C13.5 260 -3 260 -20 260 C-20 253.4 -20 246.8 -20 240 C-16.7 240 -13.4 240 -10 240 C-10 233.4 -10 226.8 -10 220 C-13.3 220 -16.6 220 -20 220 C-20 216.7 -20 213.4 -20 210 C-23.3 210 -26.6 210 -30 210 C-30 200.1 -30 190.2 -30 180 C-26.7 180 -23.4 180 -20 180 C-20 173.4 -20 166.8 -20 160 C-16.7 160 -13.4 160 -10 160 C-10 156.7 -10 153.4 -10 150 C-6.7 150 -3.4 150 0 150 C0 146.7 0 143.4 0 140 C-3.3 140 -6.6 140 -10 140 C-10 136.7 -10 133.4 -10 130 C-13.3 130 -16.6 130 -20 130 C-20 126.7 -20 123.4 -20 120 C-23.3 120 -26.6 120 -30 120 C-30 116.7 -30 113.4 -30 110 C-33.3 110 -36.6 110 -40 110 C-40 103.4 -40 96.8 -40 90 C-43.3 90 -46.6 90 -50 90 C-50 86.7 -50 83.4 -50 80 C-53.3 80 -56.6 80 -60 80 C-60 76.7 -60 73.4 -60 70 C-56.7 70 -53.4 70 -50 70 C-50 66.7 -50 63.4 -50 60 C-46.7 60 -43.4 60 -40 60 C-40 56.7 -40 53.4 -40 50 C-36.7 50 -33.4 50 -30 50 C-30 43.4 -30 36.8 -30 30 C-26.7 30 -23.4 30 -20 30 C-20 26.7 -20 23.4 -20 20 C-16.7 20 -13.4 20 -10 20 C-10 16.7 -10 13.4 -10 10 C-6.7 10 -3.4 10 0 10 C0 6.7 0 3.4 0 0 Z " transform="translate(116,20)" style="fill: rgb(218, 2, 5); --darkreader-inline-fill: var(--darkreader-text-da0205, #fd3335);" data-darkreader-inline-fill=""></path><path d="M0 0 C23.1 0 46.2 0 70 0 C70 3.3 70 6.6 70 10 C73.3 10 76.6 10 80 10 C80 13.3 80 16.6 80 20 C83.3 20 86.6 20 90 20 C90 23.3 90 26.6 90 30 C93.3 30 96.6 30 100 30 C100 36.6 100 43.2 100 50 C103.3 50 106.6 50 110 50 C110 53.3 110 56.6 110 60 C113.3 60 116.6 60 120 60 C120 63.3 120 66.6 120 70 C123.3 70 126.6 70 130 70 C130 73.3 130 76.6 130 80 C126.7 80 123.4 80 120 80 C120 83.3 120 86.6 120 90 C116.7 90 113.4 90 110 90 C110 96.6 110 103.2 110 110 C106.7 110 103.4 110 100 110 C100 103.4 100 96.8 100 90 C96.7 90 93.4 90 90 90 C90 93.3 90 96.6 90 100 C86.7 100 83.4 100 80 100 C80 96.7 80 93.4 80 90 C76.7 90 73.4 90 70 90 C70 86.7 70 83.4 70 80 C66.7 80 63.4 80 60 80 C60 76.7 60 73.4 60 70 C56.7 70 53.4 70 50 70 C50 76.6 50 83.2 50 90 C46.7 90 43.4 90 40 90 C40 86.7 40 83.4 40 80 C36.7 80 33.4 80 30 80 C30 73.4 30 66.8 30 60 C46.5 60 63 60 80 60 C80 56.7 80 53.4 80 50 C50.3 50 20.6 50 -10 50 C-10 53.3 -10 56.6 -10 60 C-0.1 60 9.8 60 20 60 C20 63.3 20 66.6 20 70 C16.7 70 13.4 70 10 70 C10 73.3 10 76.6 10 80 C6.7 80 3.4 80 0 80 C0 83.3 0 86.6 0 90 C-3.3 90 -6.6 90 -10 90 C-10 93.3 -10 96.6 -10 100 C-13.3 100 -16.6 100 -20 100 C-20 96.7 -20 93.4 -20 90 C-23.3 90 -26.6 90 -30 90 C-30 96.6 -30 103.2 -30 110 C-33.3 110 -36.6 110 -40 110 C-40 103.4 -40 96.8 -40 90 C-43.3 90 -46.6 90 -50 90 C-50 86.7 -50 83.4 -50 80 C-53.3 80 -56.6 80 -60 80 C-60 76.7 -60 73.4 -60 70 C-56.7 70 -53.4 70 -50 70 C-50 66.7 -50 63.4 -50 60 C-46.7 60 -43.4 60 -40 60 C-40 56.7 -40 53.4 -40 50 C-36.7 50 -33.4 50 -30 50 C-30 43.4 -30 36.8 -30 30 C-26.7 30 -23.4 30 -20 30 C-20 26.7 -20 23.4 -20 20 C-16.7 20 -13.4 20 -10 20 C-10 16.7 -10 13.4 -10 10 C-6.7 10 -3.4 10 0 10 C0 6.7 0 3.4 0 0 Z " transform="translate(116,20)" style="fill: rgb(0, 0, 0); --darkreader-inline-fill: var(--darkreader-text-000000, #cdd6f4);" data-darkreader-inline-fill=""></path><path d="M0 0 C29.7 0 59.4 0 90 0 C90 3.3 90 6.6 90 10 C73.5 10 57 10 40 10 C40 16.6 40 23.2 40 30 C43.3 30 46.6 30 50 30 C50 33.3 50 36.6 50 40 C53.3 40 56.6 40 60 40 C60 33.4 60 26.8 60 20 C63.3 20 66.6 20 70 20 C70 23.3 70 26.6 70 30 C73.3 30 76.6 30 80 30 C80 33.3 80 36.6 80 40 C83.3 40 86.6 40 90 40 C90 43.3 90 46.6 90 50 C93.3 50 96.6 50 100 50 C100 46.7 100 43.4 100 40 C103.3 40 106.6 40 110 40 C110 49.9 110 59.8 110 70 C106.7 70 103.4 70 100 70 C100 73.3 100 76.6 100 80 C96.7 80 93.4 80 90 80 C90 83.3 90 86.6 90 90 C83.4 90 76.8 90 70 90 C70 93.3 70 96.6 70 100 C66.7 100 63.4 100 60 100 C60 103.3 60 106.6 60 110 C56.7 110 53.4 110 50 110 C50 123.2 50 136.4 50 150 C53.3 150 56.6 150 60 150 C60 153.3 60 156.6 60 160 C50.1 160 40.2 160 30 160 C30 156.7 30 153.4 30 150 C33.3 150 36.6 150 40 150 C40 136.8 40 123.6 40 110 C36.7 110 33.4 110 30 110 C30 106.7 30 103.4 30 100 C26.7 100 23.4 100 20 100 C20 96.7 20 93.4 20 90 C13.4 90 6.8 90 0 90 C0 86.7 0 83.4 0 80 C-3.3 80 -6.6 80 -10 80 C-10 76.7 -10 73.4 -10 70 C-13.3 70 -16.6 70 -20 70 C-20 60.1 -20 50.2 -20 40 C-16.7 40 -13.4 40 -10 40 C-10 43.3 -10 46.6 -10 50 C-6.7 50 -3.4 50 0 50 C0 46.7 0 43.4 0 40 C3.3 40 6.6 40 10 40 C10 36.7 10 33.4 10 30 C13.3 30 16.6 30 20 30 C20 26.7 20 23.4 20 20 C23.3 20 26.6 20 30 20 C30 16.7 30 13.4 30 10 C20.1 10 10.2 10 0 10 C0 6.7 0 3.4 0 0 Z " transform="translate(106,70)" style="fill: rgb(253, 236, 185); --darkreader-inline-fill: var(--darkreader-text-fdecb9, #fce295);" data-darkreader-inline-fill=""></path><path d="M0 0 C3.3 0 6.6 0 10 0 C10 3.3 10 6.6 10 10 C13.3 10 16.6 10 20 10 C20 13.3 20 16.6 20 20 C23.3 20 26.6 20 30 20 C30 26.6 30 33.2 30 40 C33.3 40 36.6 40 40 40 C40 49.9 40 59.8 40 70 C36.7 70 33.4 70 30 70 C30 73.3 30 76.6 30 80 C26.7 80 23.4 80 20 80 C20 89.9 20 99.8 20 110 C10.1 110 0.2 110 -10 110 C-10 103.4 -10 96.8 -10 90 C-6.7 90 -3.4 90 0 90 C0 83.4 0 76.8 0 70 C-3.3 70 -6.6 70 -10 70 C-10 66.7 -10 63.4 -10 60 C-13.3 60 -16.6 60 -20 60 C-20 46.8 -20 33.6 -20 20 C-16.7 20 -13.4 20 -10 20 C-10 16.7 -10 13.4 -10 10 C-6.7 10 -3.4 10 0 10 C0 6.7 0 3.4 0 0 Z " transform="translate(176,160)" style="fill: rgb(218, 2, 5); --darkreader-inline-fill: var(--darkreader-text-da0205, #fd3335);" data-darkreader-inline-fill=""></path><path d="M0 0 C23.1 0 46.2 0 70 0 C70 3.3 70 6.6 70 10 C73.3 10 76.6 10 80 10 C80 13.3 80 16.6 80 20 C83.3 20 86.6 20 90 20 C90 26.6 90 33.2 90 40 C86.7 40 83.4 40 80 40 C80 36.7 80 33.4 80 30 C50.3 30 20.6 30 -10 30 C-10 33.3 -10 36.6 -10 40 C-13.3 40 -16.6 40 -20 40 C-20 33.4 -20 26.8 -20 20 C-16.7 20 -13.4 20 -10 20 C-10 16.7 -10 13.4 -10 10 C-6.7 10 -3.4 10 0 10 C0 6.7 0 3.4 0 0 Z " transform="translate(116,20)" style="fill: rgb(236, 200, 94); --darkreader-inline-fill: var(--darkreader-text-ecc85e, #ecc85e);" data-darkreader-inline-fill=""></path><path d="M0 0 C19.8 0 39.6 0 60 0 C60 6.6 60 13.2 60 20 C56.7 20 53.4 20 50 20 C50 26.6 50 33.2 50 40 C59.9 40 69.8 40 80 40 C80 36.7 80 33.4 80 30 C83.3 30 86.6 30 90 30 C90 36.6 90 43.2 90 50 C73.5 50 57 50 40 50 C40 43.4 40 36.8 40 30 C36.7 30 33.4 30 30 30 C30 33.3 30 36.6 30 40 C26.7 40 23.4 40 20 40 C20 33.4 20 26.8 20 20 C13.4 20 6.8 20 0 20 C0 13.4 0 6.8 0 0 Z " transform="translate(116,230)" style="fill: rgb(0, 0, 0); --darkreader-inline-fill: var(--darkreader-text-000000, #cdd6f4);" data-darkreader-inline-fill=""></path><path d="M0 0 C16.5 0 33 0 50 0 C50 3.3 50 6.6 50 10 C56.6 10 63.2 10 70 10 C70 16.6 70 23.2 70 30 C66.7 30 63.4 30 60 30 C60 33.3 60 36.6 60 40 C56.7 40 53.4 40 50 40 C50 36.7 50 33.4 50 30 C46.7 30 43.4 30 40 30 C40 26.7 40 23.4 40 20 C36.7 20 33.4 20 30 20 C30 16.7 30 13.4 30 10 C26.7 10 23.4 10 20 10 C20 16.6 20 23.2 20 30 C16.7 30 13.4 30 10 30 C10 26.7 10 23.4 10 20 C6.7 20 3.4 20 0 20 C0 13.4 0 6.8 0 0 Z " transform="translate(146,80)" style="fill: rgb(0, 0, 0); --darkreader-inline-fill: var(--darkreader-text-000000, #cdd6f4);" data-darkreader-inline-fill=""></path><path d="M0 0 C6.6 0 13.2 0 20 0 C20 9.9 20 19.8 20 30 C16.7 30 13.4 30 10 30 C10 39.9 10 49.8 10 60 C0.1 60 -9.8 60 -20 60 C-20 53.4 -20 46.8 -20 40 C-16.7 40 -13.4 40 -10 40 C-10 33.4 -10 26.8 -10 20 C-6.7 20 -3.4 20 0 20 C0 13.4 0 6.8 0 0 Z " transform="translate(186,210)" style="fill: rgb(218, 164, 2); --darkreader-inline-fill: var(--darkreader-text-daa402, #fdca33);" data-darkreader-inline-fill=""></path><path d="M0 0 C13.2 0 26.4 0 40 0 C40 3.3 40 6.6 40 10 C43.3 10 46.6 10 50 10 C50 13.3 50 16.6 50 20 C46.7 20 43.4 20 40 20 C40 23.3 40 26.6 40 30 C36.7 30 33.4 30 30 30 C30 36.6 30 43.2 30 50 C26.7 50 23.4 50 20 50 C20 36.8 20 23.6 20 10 C13.4 10 6.8 10 0 10 C0 6.7 0 3.4 0 0 Z " transform="translate(196,80)" style="fill: rgb(235, 199, 93); --darkreader-inline-fill: var(--darkreader-text-ebc75d, #ebc75e);" data-darkreader-inline-fill=""></path><path d="M0 0 C9.9 0 19.8 0 30 0 C30 3.3 30 6.6 30 10 C26.7 10 23.4 10 20 10 C20 13.3 20 16.6 20 20 C16.7 20 13.4 20 10 20 C10 23.3 10 26.6 10 30 C6.7 30 3.4 30 0 30 C0 33.3 0 36.6 0 40 C-3.3 40 -6.6 40 -10 40 C-10 36.7 -10 33.4 -10 30 C-13.3 30 -16.6 30 -20 30 C-20 23.4 -20 16.8 -20 10 C-13.4 10 -6.8 10 0 10 C0 6.7 0 3.4 0 0 Z " transform="translate(106,80)" style="fill: rgb(0, 0, 0); --darkreader-inline-fill: var(--darkreader-text-000000, #cdd6f4);" data-darkreader-inline-fill=""></path><path d="M0 0 C13.2 0 26.4 0 40 0 C40 3.3 40 6.6 40 10 C33.4 10 26.8 10 20 10 C20 23.2 20 36.4 20 50 C16.7 50 13.4 50 10 50 C10 43.4 10 36.8 10 30 C6.7 30 3.4 30 0 30 C0 26.7 0 23.4 0 20 C-3.3 20 -6.6 20 -10 20 C-10 16.7 -10 13.4 -10 10 C-6.7 10 -3.4 10 0 10 C0 6.7 0 3.4 0 0 Z " transform="translate(66,80)" style="fill: rgb(235, 199, 93); --darkreader-inline-fill: var(--darkreader-text-ebc75d, #ebc75e);" data-darkreader-inline-fill=""></path><path d="M0 0 C29.7 0 59.4 0 90 0 C90 3.3 90 6.6 90 10 C60.3 10 30.6 10 0 10 C0 6.7 0 3.4 0 0 Z " transform="translate(106,70)" style="fill: rgb(235, 199, 93); --darkreader-inline-fill: var(--darkreader-text-ebc75d, #ebc75e);" data-darkreader-inline-fill=""></path><path d="M0 0 C29.7 0 59.4 0 90 0 C90 3.3 90 6.6 90 10 C60.3 10 30.6 10 0 10 C0 6.7 0 3.4 0 0 Z " transform="translate(106,50)" style="fill: rgb(218, 2, 5); --darkreader-inline-fill: var(--darkreader-text-da0205, #fd3335);" data-darkreader-inline-fill=""></path><path d="M0 0 C23.1 0 46.2 0 70 0 C70 3.3 70 6.6 70 10 C46.9 10 23.8 10 0 10 C0 6.7 0 3.4 0 0 Z " transform="translate(116,20)" style="fill: rgb(0, 0, 0); --darkreader-inline-fill: var(--darkreader-text-000000, #cdd6f4);" data-darkreader-inline-fill=""></path><path d="M0 0 C3.3 0 6.6 0 10 0 C10 6.6 10 13.2 10 20 C-6.5 20 -23 20 -40 20 C-40 16.7 -40 13.4 -40 10 C-26.8 10 -13.6 10 0 10 C0 6.7 0 3.4 0 0 Z " transform="translate(196,260)" style="fill: rgb(109, 82, 1); --darkreader-inline-fill: var(--darkreader-text-6d5201, #fedd7b);" data-darkreader-inline-fill=""></path><path d="M0 0 C3.3 0 6.6 0 10 0 C10 3.3 10 6.6 10 10 C23.2 10 36.4 10 50 10 C50 13.3 50 16.6 50 20 C33.5 20 17 20 0 20 C0 13.4 0 6.8 0 0 Z " transform="translate(96,260)" style="fill: rgb(109, 82, 1); --darkreader-inline-fill: var(--darkreader-text-6d5201, #fedd7b);" data-darkreader-inline-fill=""></path><path d="M0 0 C3.3 0 6.6 0 10 0 C10 6.6 10 13.2 10 20 C13.3 20 16.6 20 20 20 C20 23.3 20 26.6 20 30 C10.1 30 0.2 30 -10 30 C-10 23.4 -10 16.8 -10 10 C-6.7 10 -3.4 10 0 10 C0 6.7 0 3.4 0 0 Z " transform="translate(206,50)" style="fill: rgb(0, 0, 0); --darkreader-inline-fill: var(--darkreader-text-000000, #cdd6f4);" data-darkreader-inline-fill=""></path><path d="M0 0 C3.3 0 6.6 0 10 0 C10 3.3 10 6.6 10 10 C13.3 10 16.6 10 20 10 C20 16.6 20 23.2 20 30 C10.1 30 0.2 30 -10 30 C-10 26.7 -10 23.4 -10 20 C-6.7 20 -3.4 20 0 20 C0 13.4 0 6.8 0 0 Z " transform="translate(86,50)" style="fill: rgb(0, 0, 0); --darkreader-inline-fill: var(--darkreader-text-000000, #cdd6f4);" data-darkreader-inline-fill=""></path><path d="M0 0 C6.6 0 13.2 0 20 0 C20 3.3 20 6.6 20 10 C23.3 10 26.6 10 30 10 C30 13.3 30 16.6 30 20 C20.1 20 10.2 20 0 20 C0 13.4 0 6.8 0 0 Z " transform="translate(166,250)" style="fill: rgb(254, 237, 186); --darkreader-inline-fill: var(--darkreader-text-feedba, #fde395);" data-darkreader-inline-fill=""></path><path d="M0 0 C6.6 0 13.2 0 20 0 C20 6.6 20 13.2 20 20 C10.1 20 0.2 20 -10 20 C-10 16.7 -10 13.4 -10 10 C-6.7 10 -3.4 10 0 10 C0 6.7 0 3.4 0 0 Z " transform="translate(116,250)" style="fill: rgb(254, 237, 186); --darkreader-inline-fill: var(--darkreader-text-feedba, #fde395);" data-darkreader-inline-fill=""></path><path d="M0 0 C6.6 0 13.2 0 20 0 C20 3.3 20 6.6 20 10 C23.3 10 26.6 10 30 10 C30 13.3 30 16.6 30 20 C20.1 20 10.2 20 0 20 C0 13.4 0 6.8 0 0 Z " transform="translate(116,230)" style="fill: rgb(27, 2, 218); --darkreader-inline-fill: var(--darkreader-text-1b02da, #4a33fd);" data-darkreader-inline-fill=""></path><path d="M0 0 C6.6 0 13.2 0 20 0 C20 9.9 20 19.8 20 30 C16.7 30 13.4 30 10 30 C10 23.4 10 16.8 10 10 C6.7 10 3.4 10 0 10 C0 6.7 0 3.4 0 0 Z " transform="translate(96,230)" style="fill: rgb(0, 0, 0); --darkreader-inline-fill: var(--darkreader-text-000000, #cdd6f4);" data-darkreader-inline-fill=""></path><path d="M0 0 C6.6 0 13.2 0 20 0 C20 6.6 20 13.2 20 20 C13.4 20 6.8 20 0 20 C0 13.4 0 6.8 0 0 Z " transform="translate(186,210)" style="fill: rgb(254, 237, 186); --darkreader-inline-fill: var(--darkreader-text-feedba, #fde395);" data-darkreader-inline-fill=""></path><path d="M0 0 C3.3 0 6.6 0 10 0 C10 3.3 10 6.6 10 10 C13.3 10 16.6 10 20 10 C20 13.3 20 16.6 20 20 C10.1 20 0.2 20 -10 20 C-10 16.7 -10 13.4 -10 10 C-6.7 10 -3.4 10 0 10 C0 6.7 0 3.4 0 0 Z " transform="translate(146,210)" style="fill: rgb(218, 164, 2); --darkreader-inline-fill: var(--darkreader-text-daa402, #fdca33);" data-darkreader-inline-fill=""></path><path d="M0 0 C6.6 0 13.2 0 20 0 C20 6.6 20 13.2 20 20 C13.4 20 6.8 20 0 20 C0 13.4 0 6.8 0 0 Z " transform="translate(96,210)" style="fill: rgb(254, 237, 186); --darkreader-inline-fill: var(--darkreader-text-feedba, #fde395);" data-darkreader-inline-fill=""></path><path d="M0 0 C3.3 0 6.6 0 10 0 C10 6.6 10 13.2 10 20 C3.4 20 -3.2 20 -10 20 C-10 16.7 -10 13.4 -10 10 C-6.7 10 -3.4 10 0 10 C0 6.7 0 3.4 0 0 Z " transform="translate(166,230)" style="fill: rgb(27, 2, 218); --darkreader-inline-fill: var(--darkreader-text-1b02da, #4a33fd);" data-darkreader-inline-fill=""></path><path d="M0 0 C3.3 0 6.6 0 10 0 C10 9.9 10 19.8 10 30 C6.7 30 3.4 30 0 30 C0 20.1 0 10.2 0 0 Z " transform="translate(206,200)" style="fill: rgb(0, 0, 0); --darkreader-inline-fill: var(--darkreader-text-000000, #cdd6f4);" data-darkreader-inline-fill=""></path><path d="M0 0 C3.3 0 6.6 0 10 0 C10 9.9 10 19.8 10 30 C6.7 30 3.4 30 0 30 C0 20.1 0 10.2 0 0 Z " transform="translate(86,200)" style="fill: rgb(0, 0, 0); --darkreader-inline-fill: var(--darkreader-text-000000, #cdd6f4);" data-darkreader-inline-fill=""></path><path d="M0 0 C9.9 0 19.8 0 30 0 C30 3.3 30 6.6 30 10 C20.1 10 10.2 10 0 10 C0 6.7 0 3.4 0 0 Z " transform="translate(136,150)" style="fill: rgb(109, 41, 1); --darkreader-inline-fill: var(--darkreader-text-6d2901, #feab7b);" data-darkreader-inline-fill=""></path><path d="M0 0 C6.6 0 13.2 0 20 0 C20 3.3 20 6.6 20 10 C13.4 10 6.8 10 0 10 C0 6.7 0 3.4 0 0 Z " transform="translate(166,250)" style="fill: rgb(255, 255, 255); --darkreader-inline-fill: var(--darkreader-text-ffffff, #cdd6f4);" data-darkreader-inline-fill=""></path><path d="M0 0 C6.6 0 13.2 0 20 0 C20 3.3 20 6.6 20 10 C13.4 10 6.8 10 0 10 C0 6.7 0 3.4 0 0 Z " transform="translate(116,250)" style="fill: rgb(255, 255, 255); --darkreader-inline-fill: var(--darkreader-text-ffffff, #cdd6f4);" data-darkreader-inline-fill=""></path><path d="M0 0 C6.6 0 13.2 0 20 0 C20 3.3 20 6.6 20 10 C13.4 10 6.8 10 0 10 C0 6.7 0 3.4 0 0 Z " transform="translate(186,230)" style="fill: rgb(0, 0, 0); --darkreader-inline-fill: var(--darkreader-text-000000, #cdd6f4);" data-darkreader-inline-fill=""></path><path d="M0 0 C3.3 0 6.6 0 10 0 C10 6.6 10 13.2 10 20 C6.7 20 3.4 20 0 20 C0 13.4 0 6.8 0 0 Z " transform="translate(196,180)" style="fill: rgb(0, 0, 0); --darkreader-inline-fill: var(--darkreader-text-000000, #cdd6f4);" data-darkreader-inline-fill=""></path><path d="M0 0 C3.3 0 6.6 0 10 0 C10 6.6 10 13.2 10 20 C6.7 20 3.4 20 0 20 C0 13.4 0 6.8 0 0 Z " transform="translate(96,180)" style="fill: rgb(0, 0, 0); --darkreader-inline-fill: var(--darkreader-text-000000, #cdd6f4);" data-darkreader-inline-fill=""></path><path d="M0 0 C3.3 0 6.6 0 10 0 C10 6.6 10 13.2 10 20 C6.7 20 3.4 20 0 20 C0 13.4 0 6.8 0 0 Z " transform="translate(216,110)" style="fill: rgb(0, 0, 0); --darkreader-inline-fill: var(--darkreader-text-000000, #cdd6f4);" data-darkreader-inline-fill=""></path><path d="M0 0 C3.3 0 6.6 0 10 0 C10 6.6 10 13.2 10 20 C6.7 20 3.4 20 0 20 C0 13.4 0 6.8 0 0 Z " transform="translate(166,110)" style="fill: rgb(0, 0, 0); --darkreader-inline-fill: var(--darkreader-text-000000, #cdd6f4);" data-darkreader-inline-fill=""></path><path d="M0 0 C3.3 0 6.6 0 10 0 C10 6.6 10 13.2 10 20 C6.7 20 3.4 20 0 20 C0 13.4 0 6.8 0 0 Z " transform="translate(126,110)" style="fill: rgb(0, 0, 0); --darkreader-inline-fill: var(--darkreader-text-000000, #cdd6f4);" data-darkreader-inline-fill=""></path><path d="M0 0 C3.3 0 6.6 0 10 0 C10 6.6 10 13.2 10 20 C6.7 20 3.4 20 0 20 C0 13.4 0 6.8 0 0 Z " transform="translate(76,110)" style="fill: rgb(0, 0, 0); --darkreader-inline-fill: var(--darkreader-text-000000, #cdd6f4);" data-darkreader-inline-fill=""></path><path d="M0 0 C3.3 0 6.6 0 10 0 C10 3.3 10 6.6 10 10 C6.7 10 3.4 10 0 10 C0 6.7 0 3.4 0 0 Z " transform="translate(196,260)" style="fill: rgb(0, 0, 0); --darkreader-inline-fill: var(--darkreader-text-000000, #cdd6f4);" data-darkreader-inline-fill=""></path><path d="M0 0 C3.3 0 6.6 0 10 0 C10 3.3 10 6.6 10 10 C6.7 10 3.4 10 0 10 C0 6.7 0 3.4 0 0 Z " transform="translate(96,260)" style="fill: rgb(0, 0, 0); --darkreader-inline-fill: var(--darkreader-text-000000, #cdd6f4);" data-darkreader-inline-fill=""></path><path d="M0 0 C3.3 0 6.6 0 10 0 C10 3.3 10 6.6 10 10 C6.7 10 3.4 10 0 10 C0 6.7 0 3.4 0 0 Z " transform="translate(176,200)" style="fill: rgb(0, 0, 0); --darkreader-inline-fill: var(--darkreader-text-000000, #cdd6f4);" data-darkreader-inline-fill=""></path><path d="M0 0 C3.3 0 6.6 0 10 0 C10 3.3 10 6.6 10 10 C6.7 10 3.4 10 0 10 C0 6.7 0 3.4 0 0 Z " transform="translate(116,200)" style="fill: rgb(0, 0, 0); --darkreader-inline-fill: var(--darkreader-text-000000, #cdd6f4);" data-darkreader-inline-fill=""></path><path d="M0 0 C3.3 0 6.6 0 10 0 C10 3.3 10 6.6 10 10 C6.7 10 3.4 10 0 10 C0 6.7 0 3.4 0 0 Z " transform="translate(166,180)" style="fill: rgb(218, 164, 2); --darkreader-inline-fill: var(--darkreader-text-daa402, #fdca33);" data-darkreader-inline-fill=""></path><path d="M0 0 C3.3 0 6.6 0 10 0 C10 3.3 10 6.6 10 10 C6.7 10 3.4 10 0 10 C0 6.7 0 3.4 0 0 Z " transform="translate(126,180)" style="fill: rgb(218, 164, 2); --darkreader-inline-fill: var(--darkreader-text-daa402, #fdca33);" data-darkreader-inline-fill=""></path><path d="M0 0 C3.3 0 6.6 0 10 0 C10 3.3 10 6.6 10 10 C6.7 10 3.4 10 0 10 C0 6.7 0 3.4 0 0 Z " transform="translate(186,170)" style="fill: rgb(0, 0, 0); --darkreader-inline-fill: var(--darkreader-text-000000, #cdd6f4);" data-darkreader-inline-fill=""></path><path d="M0 0 C3.3 0 6.6 0 10 0 C10 3.3 10 6.6 10 10 C6.7 10 3.4 10 0 10 C0 6.7 0 3.4 0 0 Z " transform="translate(106,170)" style="fill: rgb(0, 0, 0); --darkreader-inline-fill: var(--darkreader-text-000000, #cdd6f4);" data-darkreader-inline-fill=""></path><path d="M0 0 C3.3 0 6.6 0 10 0 C10 3.3 10 6.6 10 10 C6.7 10 3.4 10 0 10 C0 6.7 0 3.4 0 0 Z " transform="translate(176,160)" style="fill: rgb(0, 0, 0); --darkreader-inline-fill: var(--darkreader-text-000000, #cdd6f4);" data-darkreader-inline-fill=""></path><path d="M0 0 C3.3 0 6.6 0 10 0 C10 3.3 10 6.6 10 10 C6.7 10 3.4 10 0 10 C0 6.7 0 3.4 0 0 Z " transform="translate(116,160)" style="fill: rgb(0, 0, 0); --darkreader-inline-fill: var(--darkreader-text-000000, #cdd6f4);" data-darkreader-inline-fill=""></path><path d="M0 0 C3.3 0 6.6 0 10 0 C10 3.3 10 6.6 10 10 C6.7 10 3.4 10 0 10 C0 6.7 0 3.4 0 0 Z " transform="translate(186,150)" style="fill: rgb(0, 0, 0); --darkreader-inline-fill: var(--darkreader-text-000000, #cdd6f4);" data-darkreader-inline-fill=""></path><path d="M0 0 C3.3 0 6.6 0 10 0 C10 3.3 10 6.6 10 10 C6.7 10 3.4 10 0 10 C0 6.7 0 3.4 0 0 Z " transform="translate(106,150)" style="fill: rgb(0, 0, 0); --darkreader-inline-fill: var(--darkreader-text-000000, #cdd6f4);" data-darkreader-inline-fill=""></path><path d="M0 0 C3.3 0 6.6 0 10 0 C10 3.3 10 6.6 10 10 C6.7 10 3.4 10 0 10 C0 6.7 0 3.4 0 0 Z " transform="translate(196,140)" style="fill: rgb(0, 0, 0); --darkreader-inline-fill: var(--darkreader-text-000000, #cdd6f4);" data-darkreader-inline-fill=""></path><path d="M0 0 C3.3 0 6.6 0 10 0 C10 3.3 10 6.6 10 10 C6.7 10 3.4 10 0 10 C0 6.7 0 3.4 0 0 Z " transform="translate(166,140)" style="fill: rgb(109, 41, 1); --darkreader-inline-fill: var(--darkreader-text-6d2901, #feab7b);" data-darkreader-inline-fill=""></path><path d="M0 0 C3.3 0 6.6 0 10 0 C10 3.3 10 6.6 10 10 C6.7 10 3.4 10 0 10 C0 6.7 0 3.4 0 0 Z " transform="translate(126,140)" style="fill: rgb(109, 41, 1); --darkreader-inline-fill: var(--darkreader-text-6d2901, #feab7b);" data-darkreader-inline-fill=""></path><path d="M0 0 C3.3 0 6.6 0 10 0 C10 3.3 10 6.6 10 10 C6.7 10 3.4 10 0 10 C0 6.7 0 3.4 0 0 Z " transform="translate(96,140)" style="fill: rgb(0, 0, 0); --darkreader-inline-fill: var(--darkreader-text-000000, #cdd6f4);" data-darkreader-inline-fill=""></path><path d="M0 0 C3.3 0 6.6 0 10 0 C10 3.3 10 6.6 10 10 C6.7 10 3.4 10 0 10 C0 6.7 0 3.4 0 0 Z " transform="translate(206,130)" style="fill: rgb(0, 0, 0); --darkreader-inline-fill: var(--darkreader-text-000000, #cdd6f4);" data-darkreader-inline-fill=""></path><path d="M0 0 C3.3 0 6.6 0 10 0 C10 3.3 10 6.6 10 10 C6.7 10 3.4 10 0 10 C0 6.7 0 3.4 0 0 Z " transform="translate(86,130)" style="fill: rgb(0, 0, 0); --darkreader-inline-fill: var(--darkreader-text-000000, #cdd6f4);" data-darkreader-inline-fill=""></path><path d="M0 0 C3.3 0 6.6 0 10 0 C10 3.3 10 6.6 10 10 C6.7 10 3.4 10 0 10 C0 6.7 0 3.4 0 0 Z " transform="translate(226,100)" style="fill: rgb(0, 0, 0); --darkreader-inline-fill: var(--darkreader-text-000000, #cdd6f4);" data-darkreader-inline-fill=""></path><path d="M0 0 C3.3 0 6.6 0 10 0 C10 3.3 10 6.6 10 10 C6.7 10 3.4 10 0 10 C0 6.7 0 3.4 0 0 Z " transform="translate(66,100)" style="fill: rgb(0, 0, 0); --darkreader-inline-fill: var(--darkreader-text-000000, #cdd6f4);" data-darkreader-inline-fill=""></path><path d="M0 0 C3.3 0 6.6 0 10 0 C10 3.3 10 6.6 10 10 C6.7 10 3.4 10 0 10 C0 6.7 0 3.4 0 0 Z " transform="translate(236,90)" style="fill: rgb(0, 0, 0); --darkreader-inline-fill: var(--darkreader-text-000000, #cdd6f4);" data-darkreader-inline-fill=""></path><path d="M0 0 C3.3 0 6.6 0 10 0 C10 3.3 10 6.6 10 10 C6.7 10 3.4 10 0 10 C0 6.7 0 3.4 0 0 Z " transform="translate(56,90)" style="fill: rgb(0, 0, 0); --darkreader-inline-fill: var(--darkreader-text-000000, #cdd6f4);" data-darkreader-inline-fill=""></path><path d="M0 0 C3.3 0 6.6 0 10 0 C10 3.3 10 6.6 10 10 C6.7 10 3.4 10 0 10 C0 6.7 0 3.4 0 0 Z " transform="translate(226,80)" style="fill: rgb(0, 0, 0); --darkreader-inline-fill: var(--darkreader-text-000000, #cdd6f4);" data-darkreader-inline-fill=""></path><path d="M0 0 C3.3 0 6.6 0 10 0 C10 3.3 10 6.6 10 10 C6.7 10 3.4 10 0 10 C0 6.7 0 3.4 0 0 Z " transform="translate(66,80)" style="fill: rgb(0, 0, 0); --darkreader-inline-fill: var(--darkreader-text-000000, #cdd6f4);" data-darkreader-inline-fill=""></path><path d="M0 0 C3.3 0 6.6 0 10 0 C10 3.3 10 6.6 10 10 C6.7 10 3.4 10 0 10 C0 6.7 0 3.4 0 0 Z " transform="translate(196,60)" style="fill: rgb(218, 2, 5); --darkreader-inline-fill: var(--darkreader-text-da0205, #fd3335);" data-darkreader-inline-fill=""></path><path d="M0 0 C3.3 0 6.6 0 10 0 C10 3.3 10 6.6 10 10 C6.7 10 3.4 10 0 10 C0 6.7 0 3.4 0 0 Z " transform="translate(96,60)" style="fill: rgb(218, 2, 5); --darkreader-inline-fill: var(--darkreader-text-da0205, #fd3335);" data-darkreader-inline-fill=""></path><path d="M0 0 C3.3 0 6.6 0 10 0 C10 3.3 10 6.6 10 10 C6.7 10 3.4 10 0 10 C0 6.7 0 3.4 0 0 Z " transform="translate(196,50)" style="fill: rgb(236, 200, 94); --darkreader-inline-fill: var(--darkreader-text-ecc85e, #ecc85e);" data-darkreader-inline-fill=""></path><path d="M0 0 C3.3 0 6.6 0 10 0 C10 3.3 10 6.6 10 10 C6.7 10 3.4 10 0 10 C0 6.7 0 3.4 0 0 Z " transform="translate(96,50)" style="fill: rgb(236, 200, 94); --darkreader-inline-fill: var(--darkreader-text-ecc85e, #ecc85e);" data-darkreader-inline-fill=""></path><path d="M0 0 C3.3 0 6.6 0 10 0 C10 3.3 10 6.6 10 10 C6.7 10 3.4 10 0 10 C0 6.7 0 3.4 0 0 Z " transform="translate(196,40)" style="fill: rgb(0, 0, 0); --darkreader-inline-fill: var(--darkreader-text-000000, #cdd6f4);" data-darkreader-inline-fill=""></path><path d="M0 0 C3.3 0 6.6 0 10 0 C10 3.3 10 6.6 10 10 C6.7 10 3.4 10 0 10 C0 6.7 0 3.4 0 0 Z " transform="translate(96,40)" style="fill: rgb(0, 0, 0); --darkreader-inline-fill: var(--darkreader-text-000000, #cdd6f4);" data-darkreader-inline-fill=""></path><path d="M0 0 C3.3 0 6.6 0 10 0 C10 3.3 10 6.6 10 10 C6.7 10 3.4 10 0 10 C0 6.7 0 3.4 0 0 Z " transform="translate(186,30)" style="fill: rgb(0, 0, 0); --darkreader-inline-fill: var(--darkreader-text-000000, #cdd6f4);" data-darkreader-inline-fill=""></path><path d="M0 0 C3.3 0 6.6 0 10 0 C10 3.3 10 6.6 10 10 C6.7 10 3.4 10 0 10 C0 6.7 0 3.4 0 0 Z " transform="translate(106,30)" style="fill: rgb(0, 0, 0); --darkreader-inline-fill: var(--darkreader-text-000000, #cdd6f4);" data-darkreader-inline-fill=""></path></svg><style>@media (prefers-color-scheme: light) { :root { filter: none; } }
@media (prefers-color-scheme: dark) { :root { filter: none; } }
</style></svg>